STARTFONT 2.1
COMMENT Created by fdbbdf
FONT helvetica22b
SIZE 22 78 78
FONTBOUNDINGBOX 24 25 -1 -6
STARTPROPERTIES 4
Ownership "  Copyright (c) 1984 Adobe Systems, Inc.  /adobe/fonttools/bitmaps/stdfontvec.ps HM24.bits  TOTAL BITMAP BYTES 3882  GUIDELINES -5 0 14 19 DONE  WIDTHERR -109 7  "
FONT_ASCENT 19
FONT_DESCENT 6
DEFAULT_CHAR 32
ENDPROPERTIES
CHARS 95
STARTCHAR sp
ENCODING -1 32
SWIDTH 0 0
DWIDTH 7 0
BBX 0 0 0 0
BITMAP
ENDCHAR
STARTCHAR !
ENCODING -1 33
SWIDTH 0 0
DWIDTH 7 0
BBX 3 19 2 -1
BITMAP
e000
e000
e000
e000
e000
e000
e000
e000
e000
e000
e000
e000
e000
e000
0000
0000
e000
e000
e000
ENDCHAR
STARTCHAR "
ENCODING -1 34
SWIDTH 0 0
DWIDTH 9 0
BBX 5 6 2 12
BITMAP
d800
d800
d800
d800
d800
d800
ENDCHAR
STARTCHAR #
ENCODING -1 35
SWIDTH 0 0
DWIDTH 14 0
BBX 12 18 0 -1
BITMAP
0cc0
0cc0
0cc0
0cc0
0cc0
7ff0
7ff0
1980
1980
1980
1980
ffe0
ffe0
3300
3300
3300
3300
3300
ENDCHAR
STARTCHAR $
ENCODING -1 36
SWIDTH 0 0
DWIDTH 13 0
BBX 12 22 0 -3
BITMAP
0600
0600
1f80
7fe0
f6f0
e670
e670
f600
7e00
3e00
0f00
07c0
07e0
06f0
e670
e670
e670
f6f0
7fe0
1f80
0600
0600
ENDCHAR
STARTCHAR %
ENCODING -1 37
SWIDTH 0 0
DWIDTH 22 0
BBX 21 18 0 -1
BITMAP
00070000
3e070000
7f0e0000
e38e0000
c19c0000
c19c0000
e3b80000
7f380000
3e700000
00700000
00e3e000
00e7f000
01ce3800
01cc1800
038c1800
038e3800
0707f000
0703e000
ENDCHAR
STARTCHAR &
ENCODING -1 38
SWIDTH 0 0
DWIDTH 18 0
BBX 16 18 1 -1
BITMAP
0f80
1fc0
3de0
38e0
38e0
38e0
1dc0
0f80
1f00
3f87
7bcf
71fe
e0fc
e078
e0f8
f1fc
7fce
1f07
ENDCHAR
STARTCHAR '
ENCODING -1 39
SWIDTH 0 0
DWIDTH 7 0
BBX 3 6 2 12
BITMAP
e000
e000
e000
6000
6000
c000
ENDCHAR
STARTCHAR (
ENCODING -1 40
SWIDTH 0 0
DWIDTH 8 0
BBX 6 24 1 -6
BITMAP
0c00
1c00
3800
3800
7000
7000
6000
e000
e000
e000
e000
e000
e000
e000
e000
e000
e000
6000
7000
7000
3800
3800
1c00
0c00
ENDCHAR
STARTCHAR )
ENCODING -1 41
SWIDTH 0 0
DWIDTH 8 0
BBX 6 24 1 -6
BITMAP
c000
e000
7000
7000
3800
3800
1800
1c00
1c00
1c00
1c00
1c00
1c00
1c00
1c00
1c00
1c00
1800
3800
3800
7000
7000
e000
c000
ENDCHAR
STARTCHAR *
ENCODING -1 42
SWIDTH 0 0
DWIDTH 10 0
BBX 8 7 1 11
BITMAP
1800
1800
db00
ff00
3c00
6600
6600
ENDCHAR
STARTCHAR +
ENCODING -1 43
SWIDTH 0 0
DWIDTH 15 0
BBX 13 12 1 1
BITMAP
0700
0700
0700
0700
0700
fff8
fff8
0700
0700
0700
0700
0700
ENDCHAR
STARTCHAR ,
ENCODING -1 44
SWIDTH 0 0
DWIDTH 7 0
BBX 3 6 2 -4
BITMAP
e000
e000
e000
6000
6000
c000
ENDCHAR
STARTCHAR -
ENCODING -1 45
SWIDTH 0 0
DWIDTH 10 0
BBX 8 2 1 6
BITMAP
ff00
ff00
ENDCHAR
STARTCHAR .
ENCODING -1 46
SWIDTH 0 0
DWIDTH 7 0
BBX 3 3 2 -1
BITMAP
e000
e000
e000
ENDCHAR
STARTCHAR /
ENCODING -1 47
SWIDTH 0 0
DWIDTH 8 0
BBX 8 19 0 -1
BITMAP
0700
0700
0700
0e00
0e00
0e00
1c00
1c00
1c00
1c00
3800
3800
3800
7000
7000
7000
e000
e000
e000
ENDCHAR
STARTCHAR 0
ENCODING -1 48
SWIDTH 0 0
DWIDTH 13 0
BBX 12 18 0 -1
BITMAP
1f80
3fc0
79e0
70e0
70e0
e070
e070
e070
e070
e070
e070
e070
e070
70e0
70e0
79e0
3fc0
1f80
ENDCHAR
STARTCHAR 1
ENCODING -1 49
SWIDTH 0 0
DWIDTH 13 0
BBX 7 18 2 -1
BITMAP
0e00
0e00
1e00
fe00
fe00
0e00
0e00
0e00
0e00
0e00
0e00
0e00
0e00
0e00
0e00
0e00
0e00
0e00
ENDCHAR
STARTCHAR 2
ENCODING -1 50
SWIDTH 0 0
DWIDTH 13 0
BBX 12 18 0 -1
BITMAP
1f80
7fe0
70e0
e070
e070
e070
0070
00e0
03e0
0780
1f00
1c00
7800
7000
e000
e000
fff0
fff0
ENDCHAR
STARTCHAR 3
ENCODING -1 51
SWIDTH 0 0
DWIDTH 13 0
BBX 12 18 0 -1
BITMAP
1f00
7fc0
71c0
e0e0
e0e0
00e0
00c0
01c0
0f80
0fe0
00e0
0070
0070
e070
e070
70e0
7fe0
1f80
ENDCHAR
STARTCHAR 4
ENCODING -1 52
SWIDTH 0 0
DWIDTH 13 0
BBX 12 18 0 -1
BITMAP
01c0
03c0
03c0
07c0
0fc0
0dc0
1dc0
19c0
39c0
71c0
71c0
e1c0
fff0
fff0
01c0
01c0
01c0
01c0
ENDCHAR
STARTCHAR 5
ENCODING -1 53
SWIDTH 0 0
DWIDTH 13 0
BBX 12 18 0 -1
BITMAP
7fe0
7fe0
7000
7000
7000
7000
7f00
7fc0
71e0
00e0
0070
0070
0070
e070
e0e0
71e0
7fc0
1f00
ENDCHAR
STARTCHAR 6
ENCODING -1 54
SWIDTH 0 0
DWIDTH 13 0
BBX 12 18 0 -1
BITMAP
0f80
3fe0
78e0
7070
e070
e000
ef80
ffe0
f9e0
f0f0
e070
e070
e070
e070
f0f0
79e0
7fe0
1f80
ENDCHAR
STARTCHAR 7
ENCODING -1 55
SWIDTH 0 0
DWIDTH 13 0
BBX 12 18 0 -1
BITMAP
fff0
fff0
00f0
00e0
01c0
01c0
0380
0380
0700
0700
0e00
0e00
1e00
1c00
1c00
3c00
3800
3800
ENDCHAR
STARTCHAR 8
ENCODING -1 56
SWIDTH 0 0
DWIDTH 13 0
BBX 12 18 0 -1
BITMAP
1f80
7fe0
70e0
e070
e070
e070
e070
70e0
3fc0
3fc0
70e0
e070
e070
e070
e070
70e0
7fe0
1f80
ENDCHAR
STARTCHAR 9
ENCODING -1 57
SWIDTH 0 0
DWIDTH 13 0
BBX 12 18 0 -1
BITMAP
1f80
7fe0
79e0
f0f0
e070
e070
e070
e070
f0f0
79f0
7ff0
1f70
0070
e070
e0e0
71e0
7fc0
1f00
ENDCHAR
STARTCHAR :
ENCODING -1 58
SWIDTH 0 0
DWIDTH 7 0
BBX 3 14 2 -1
BITMAP
e000
e000
e000
0000
0000
0000
0000
0000
0000
0000
0000
e000
e000
e000
ENDCHAR
STARTCHAR ;
ENCODING -1 59
SWIDTH 0 0
DWIDTH 7 0
BBX 3 17 2 -4
BITMAP
e000
e000
e000
0000
0000
0000
0000
0000
0000
0000
0000
e000
e000
e000
6000
6000
c000
ENDCHAR
STARTCHAR <
ENCODING -1 60
SWIDTH 0 0
DWIDTH 15 0
BBX 13 12 0 1
BITMAP
0038
00f8
03e0
0f80
3e00
f000
f000
3e00
0f80
03e0
00f8
0038
ENDCHAR
STARTCHAR =
ENCODING -1 61
SWIDTH 0 0
DWIDTH 12 0
BBX 10 6 1 4
BITMAP
7fc0
7fc0
0000
0000
7fc0
7fc0
ENDCHAR
STARTCHAR >
ENCODING -1 62
SWIDTH 0 0
DWIDTH 14 0
BBX 13 12 0 1
BITMAP
e000
f800
3e00
0f80
03e0
0078
0078
03e0
0f80
3e00
f800
e000
ENDCHAR
STARTCHAR ?
ENCODING -1 63
SWIDTH 0 0
DWIDTH 15 0
BBX 11 19 2 -1
BITMAP
1f00
7fc0
f1e0
e0e0
e0e0
e0e0
01c0
03c0
0780
0700
0e00
0e00
0e00
0e00
0000
0000
0e00
0e00
0e00
ENDCHAR
STARTCHAR @
ENCODING -1 64
SWIDTH 0 0
DWIDTH 24 0
BBX 22 22 1 -5
BITMAP
01ff0000
07ffc000
0f83f000
1e007800
3c003800
787d9c00
70ff9c00
f1c71c00
e3871c00
e3061c00
e70e1c00
e70c3800
e70c3800
e71c7000
e39ef000
73ffe000
71f78000
38000000
3c000000
1f070000
07ff0000
01fc0000
ENDCHAR
STARTCHAR A
ENCODING -1 65
SWIDTH 0 0
DWIDTH 18 0
BBX 16 19 1 -1
BITMAP
03c0
03c0
03c0
07e0
07e0
0660
0e70
0e70
1c38
1c38
1818
381c
3ffc
7ffe
700e
700e
e007
e007
e007
ENDCHAR
STARTCHAR B
ENCODING -1 66
SWIDTH 0 0
DWIDTH 18 0
BBX 15 19 2 -1
BITMAP
ffe0
fff8
e038
e01c
e01c
e01c
e01c
e038
fff0
fff8
e01c
e00e
e00e
e00e
e00e
e01e
e03c
fff8
ffe0
ENDCHAR
STARTCHAR C
ENCODING -1 67
SWIDTH 0 0
DWIDTH 18 0
BBX 16 19 1 -1
BITMAP
07f0
1ffc
3e3e
780e
7007
f007
e000
e000
e000
e000
e000
e000
e000
f007
7007
780f
3e3e
1ffc
07f0
ENDCHAR
STARTCHAR D
ENCODING -1 68
SWIDTH 0 0
DWIDTH 19 0
BBX 16 19 2 -1
BITMAP
ffe0
fff8
e07c
e01e
e00e
e00f
e007
e007
e007
e007
e007
e007
e007
e00f
e00e
e01e
e07c
fff8
ffe0
ENDCHAR
STARTCHAR E
ENCODING -1 69
SWIDTH 0 0
DWIDTH 16 0
BBX 13 19 2 -1
BITMAP
fff0
fff0
e000
e000
e000
e000
e000
e000
ffe0
ffe0
e000
e000
e000
e000
e000
e000
e000
fff8
fff8
ENDCHAR
STARTCHAR F
ENCODING -1 70
SWIDTH 0 0
DWIDTH 15 0
BBX 12 19 2 -1
BITMAP
fff0
fff0
e000
e000
e000
e000
e000
e000
ffe0
ffe0
e000
e000
e000
e000
e000
e000
e000
e000
e000
ENDCHAR
STARTCHAR G
ENCODING -1 71
SWIDTH 0 0
DWIDTH 19 0
BBX 17 19 1 -1
BITMAP
07f00000
1ffc0000
3e3e0000
780f0000
70070000
f0000000
e0000000
e0000000
e0000000
e07f8000
e07f8000
e0038000
e0038000
f0038000
70078000
780f8000
3e3f8000
1ffb8000
07f38000
ENDCHAR
STARTCHAR H
ENCODING -1 72
SWIDTH 0 0
DWIDTH 19 0
BBX 15 19 2 -1
BITMAP
e00e
e00e
e00e
e00e
e00e
e00e
e00e
e00e
fffe
fffe
e00e
e00e
e00e
e00e
e00e
e00e
e00e
e00e
e00e
ENDCHAR
STARTCHAR I
ENCODING -1 73
SWIDTH 0 0
DWIDTH 7 0
BBX 3 19 2 -1
BITMAP
e000
e000
e000
e000
e000
e000
e000
e000
e000
e000
e000
e000
e000
e000
e000
e000
e000
e000
e000
ENDCHAR
STARTCHAR J
ENCODING -1 74
SWIDTH 0 0
DWIDTH 14 0
BBX 11 19 1 -1
BITMAP
00e0
00e0
00e0
00e0
00e0
00e0
00e0
00e0
00e0
00e0
00e0
00e0
e0e0
e0e0
e0e0
e0e0
71c0
7fc0
1f00
ENDCHAR
STARTCHAR K
ENCODING -1 75
SWIDTH 0 0
DWIDTH 18 0
BBX 16 19 2 -1
BITMAP
e03c
e078
e0f0
e1e0
e3c0
e780
ef00
fe00
fe00
ff00
f780
e3c0
e1e0
e0f0
e078
e03c
e01e
e00f
e007
ENDCHAR
STARTCHAR L
ENCODING -1 76
SWIDTH 0 0
DWIDTH 15 0
BBX 12 19 2 -1
BITMAP
e000
e000
e000
e000
e000
e000
e000
e000
e000
e000
e000
e000
e000
e000
e000
e000
e000
fff0
fff0
ENDCHAR
STARTCHAR M
ENCODING -1 77
SWIDTH 0 0
DWIDTH 23 0
BBX 19 19 2 -1
BITMAP
e000e000
e000e000
f001e000
f001e000
f803e000
f803e000
fc07e000
fc07e000
fe0fe000
ee0ee000
ef1ee000
e71ce000
e7bce000
e3b8e000
e3f8e000
e1f0e000
e1f0e000
e0e0e000
e0e0e000
ENDCHAR
STARTCHAR N
ENCODING -1 78
SWIDTH 0 0
DWIDTH 19 0
BBX 15 19 2 -1
BITMAP
e00e
f00e
f00e
f80e
fc0e
fc0e
fe0e
ef0e
ef0e
e78e
e3ce
e3ce
e1ee
e0fe
e0fe
e07e
e03e
e03e
e01e
ENDCHAR
STARTCHAR O
ENCODING -1 79
SWIDTH 0 0
DWIDTH 19 0
BBX 17 19 1 -1
BITMAP
07f00000
1ffc0000
3e3e0000
780f0000
70070000
f0078000
e0038000
e0038000
e0038000
e0038000
e0038000
e0038000
e0038000
f0078000
70070000
780f0000
3e3e0000
1ffc0000
07f00000
ENDCHAR
STARTCHAR P
ENCODING -1 80
SWIDTH 0 0
DWIDTH 17 0
BBX 14 19 2 -1
BITMAP
ffe0
fff8
e038
e01c
e01c
e01c
e01c
e038
fff8
fff0
e000
e000
e000
e000
e000
e000
e000
e000
e000
ENDCHAR
STARTCHAR Q
ENCODING -1 81
SWIDTH 0 0
DWIDTH 19 0
BBX 17 19 1 -1
BITMAP
07f00000
1ffc0000
3e3e0000
780f0000
70070000
f0078000
e0038000
e0038000
e0038000
e0038000
e0038000
e0038000
e0038000
f0078000
70f70000
787f0000
3e1e0000
1fff0000
07f78000
ENDCHAR
STARTCHAR R
ENCODING -1 82
SWIDTH 0 0
DWIDTH 17 0
BBX 14 19 2 -1
BITMAP
ffe0
fff8
e038
e01c
e01c
e01c
e01c
e038
fff8
fff0
e078
e038
e01c
e01c
e01c
e01c
e01c
e01c
e01c
ENDCHAR
STARTCHAR S
ENCODING -1 83
SWIDTH 0 0
DWIDTH 17 0
BBX 15 19 1 -1
BITMAP
07e0
1ff8
3c3c
781c
701c
7000
7800
3f00
1fe0
03f8
007c
001e
000e
e00e
e00e
f01e
7c7c
3ff8
0fe0
ENDCHAR
STARTCHAR T
ENCODING -1 84
SWIDTH 0 0
DWIDTH 15 0
BBX 15 19 0 -1
BITMAP
fffe
fffe
0380
0380
0380
0380
0380
0380
0380
0380
0380
0380
0380
0380
0380
0380
0380
0380
0380
ENDCHAR
STARTCHAR U
ENCODING -1 85
SWIDTH 0 0
DWIDTH 19 0
BBX 15 19 2 -1
BITMAP
e00e
e00e
e00e
e00e
e00e
e00e
e00e
e00e
e00e
e00e
e00e
e00e
e00e
e00e
f01e
701c
7c7c
3ff8
0fe0
ENDCHAR
STARTCHAR V
ENCODING -1 86
SWIDTH 0 0
DWIDTH 18 0
BBX 16 19 1 -1
BITMAP
e007
e007
f00f
700e
700e
381c
381c
381c
1c38
1c38
1c38
0e70
0e70
0660
07e0
07e0
03c0
03c0
03c0
ENDCHAR
STARTCHAR W
ENCODING -1 87
SWIDTH 0 0
DWIDTH 23 0
BBX 21 19 1 -1
BITMAP
e0703800
e0703800
e0703800
e0703800
70f87000
70f87000
70d87000
71dc7000
71dc7000
39dce000
398ce000
3b8ee000
1b8ee000
1b06c000
1f07c000
1f07c000
0e038000
0e038000
0e038000
ENDCHAR
STARTCHAR X
ENCODING -1 88
SWIDTH 0 0
DWIDTH 18 0
BBX 16 19 1 -1
BITMAP
e007
f00f
781e
381c
1c38
1e78
0ff0
07e0
03c0
03c0
07e0
0ff0
0e70
1c38
3c3c
381c
700e
f00f
e007
ENDCHAR
STARTCHAR Y
ENCODING -1 89
SWIDTH 0 0
DWIDTH 17 0
BBX 15 19 1 -1
BITMAP
e00e
f01e
701c
783c
3838
3c78
1c70
1ef0
0ee0
0fe0
07c0
07c0
0380
0380
0380
0380
0380
0380
0380
ENDCHAR
STARTCHAR Z
ENCODING -1 90
SWIDTH 0 0
DWIDTH 16 0
BBX 14 19 1 -1
BITMAP
fffc
fffc
003c
0078
00f0
01e0
01e0
03c0
0780
0780
0f00
1e00
1e00
3c00
7800
7800
f000
fffc
fffc
ENDCHAR
STARTCHAR [
ENCODING -1 91
SWIDTH 0 0
DWIDTH 8 0
BBX 5 24 1 -6
BITMAP
f800
f800
e000
e000
e000
e000
e000
e000
e000
e000
e000
e000
e000
e000
e000
e000
e000
e000
e000
e000
e000
e000
f800
f800
ENDCHAR
STARTCHAR \
ENCODING -1 92
SWIDTH 0 0
DWIDTH 8 0
BBX 8 19 0 -1
BITMAP
e000
e000
e000
7000
7000
7000
3800
3800
3800
3800
1c00
1c00
1c00
0e00
0e00
0e00
0700
0700
0700
ENDCHAR
STARTCHAR ]
ENCODING -1 93
SWIDTH 0 0
DWIDTH 8 0
BBX 5 24 2 -6
BITMAP
f800
f800
3800
3800
3800
3800
3800
3800
3800
3800
3800
3800
3800
3800
3800
3800
3800
3800
3800
3800
3800
3800
f800
f800
ENDCHAR
STARTCHAR ^
ENCODING -1 94
SWIDTH 0 0
DWIDTH 14 0
BBX 11 9 1 9
BITMAP
0e00
0e00
1f00
1b00
3b80
71c0
71c0
e0e0
e0e0
ENDCHAR
STARTCHAR _
ENCODING -1 95
SWIDTH 0 0
DWIDTH 14 0
BBX 14 2 0 -6
BITMAP
fffc
fffc
ENDCHAR
STARTCHAR `
ENCODING -1 96
SWIDTH 0 0
DWIDTH 7 0
BBX 3 6 2 12
BITMAP
6000
c000
c000
e000
e000
e000
ENDCHAR
STARTCHAR a
ENCODING -1 97
SWIDTH 0 0
DWIDTH 14 0
BBX 12 14 1 -1
BITMAP
1f80
3fc0
71e0
70e0
01e0
07e0
3fe0
7ce0
f0e0
e0e0
e1e0
f3e0
7ff0
3e70
ENDCHAR
STARTCHAR b
ENCODING -1 98
SWIDTH 0 0
DWIDTH 15 0
BBX 12 19 2 -1
BITMAP
e000
e000
e000
e000
e000
ef80
ffc0
f9e0
f0e0
e070
e070
e070
e070
e070
e070
f0e0
f9e0
ffc0
ef80
ENDCHAR
STARTCHAR c
ENCODING -1 99
SWIDTH 0 0
DWIDTH 13 0
BBX 11 14 1 -1
BITMAP
1f80
3fc0
79e0
70e0
e000
e000
e000
e000
e000
e000
70e0
79e0
3fc0
1f80
ENDCHAR
STARTCHAR d
ENCODING -1 100
SWIDTH 0 0
DWIDTH 15 0
BBX 12 19 1 -1
BITMAP
0070
0070
0070
0070
0070
1f70
3ff0
79f0
70f0
e070
e070
e070
e070
e070
e070
70f0
79f0
3ff0
1f70
ENDCHAR
STARTCHAR e
ENCODING -1 101
SWIDTH 0 0
DWIDTH 14 0
BBX 12 14 1 -1
BITMAP
0f00
3fc0
79e0
70e0
e070
e070
fff0
fff0
e000
e000
7070
78f0
3fe0
0f80
ENDCHAR
STARTCHAR f
ENCODING -1 102
SWIDTH 0 0
DWIDTH 9 0
BBX 8 19 1 -1
BITMAP
1f00
3f00
3800
3800
3800
ff00
ff00
3800
3800
3800
3800
3800
3800
3800
3800
3800
3800
3800
3800
ENDCHAR
STARTCHAR g
ENCODING -1 103
SWIDTH 0 0
DWIDTH 15 0
BBX 12 19 1 -6
BITMAP
1f70
3ff0
79f0
70f0
e070
e070
e070
e070
e070
e070
70f0
79f0
3ff0
1f70
0070
e070
f0e0
7fe0
1f80
ENDCHAR
STARTCHAR h
ENCODING -1 104
SWIDTH 0 0
DWIDTH 15 0
BBX 11 19 2 -1
BITMAP
e000
e000
e000
e000
e000
ef80
ffc0
f1c0
e0e0
e0e0
e0e0
e0e0
e0e0
e0e0
e0e0
e0e0
e0e0
e0e0
e0e0
ENDCHAR
STARTCHAR i
ENCODING -1 105
SWIDTH 0 0
DWIDTH 7 0
BBX 3 19 2 -1
BITMAP
e000
e000
e000
0000
0000
e000
e000
e000
e000
e000
e000
e000
e000
e000
e000
e000
e000
e000
e000
ENDCHAR
STARTCHAR j
ENCODING -1 106
SWIDTH 0 0
DWIDTH 7 0
BBX 5 24 -1 -6
BITMAP
3800
3800
3800
0000
0000
3800
3800
3800
3800
3800
3800
3800
3800
3800
3800
3800
3800
3800
3800
3800
3800
3800
f800
f000
ENDCHAR
STARTCHAR k
ENCODING -1 107
SWIDTH 0 0
DWIDTH 14 0
BBX 11 19 2 -1
BITMAP
e000
e000
e000
e000
e000
e1c0
e3c0
e780
ef00
fe00
fc00
fe00
ee00
e700
e780
e380
e1c0
e1e0
e0e0
ENDCHAR
STARTCHAR l
ENCODING -1 108
SWIDTH 0 0
DWIDTH 7 0
BBX 3 19 2 -1
BITMAP
e000
e000
e000
e000
e000
e000
e000
e000
e000
e000
e000
e000
e000
e000
e000
e000
e000
e000
e000
ENDCHAR
STARTCHAR m
ENCODING -1 109
SWIDTH 0 0
DWIDTH 21 0
BBX 17 14 2 -1
BITMAP
ef3e0000
ffff0000
f3e70000
e1c38000
e1c38000
e1c38000
e1c38000
e1c38000
e1c38000
e1c38000
e1c38000
e1c38000
e1c38000
e1c38000
ENDCHAR
STARTCHAR n
ENCODING -1 110
SWIDTH 0 0
DWIDTH 15 0
BBX 11 14 2 -1
BITMAP
ef80
ffc0
f1c0
e0e0
e0e0
e0e0
e0e0
e0e0
e0e0
e0e0
e0e0
e0e0
e0e0
e0e0
ENDCHAR
STARTCHAR o
ENCODING -1 111
SWIDTH 0 0
DWIDTH 14 0
BBX 12 14 1 -1
BITMAP
0f00
3fc0
79e0
70e0
e070
e070
e070
e070
e070
e070
70e0
79e0
3fc0
0f00
ENDCHAR
STARTCHAR p
ENCODING -1 112
SWIDTH 0 0
DWIDTH 15 0
BBX 12 19 2 -6
BITMAP
ef80
ffc0
f9e0
f0e0
e070
e070
e070
e070
e070
e070
f0e0
f9e0
ffc0
ef80
e000
e000
e000
e000
e000
ENDCHAR
STARTCHAR q
ENCODING -1 113
SWIDTH 0 0
DWIDTH 15 0
BBX 12 19 1 -6
BITMAP
1f70
3ff0
79f0
70f0
e070
e070
e070
e070
e070
e070
70f0
79f0
3ff0
1f70
0070
0070
0070
0070
0070
ENDCHAR
STARTCHAR r
ENCODING -1 114
SWIDTH 0 0
DWIDTH 10 0
BBX 7 14 2 -1
BITMAP
ee00
fe00
fe00
f000
e000
e000
e000
e000
e000
e000
e000
e000
e000
e000
ENDCHAR
STARTCHAR s
ENCODING -1 115
SWIDTH 0 0
DWIDTH 13 0
BBX 11 14 1 -1
BITMAP
1f00
7fc0
f1e0
e0e0
f000
7c00
3f80
07c0
01e0
e0e0
e0e0
f1e0
7fc0
1f00
ENDCHAR
STARTCHAR t
ENCODING -1 116
SWIDTH 0 0
DWIDTH 9 0
BBX 8 18 1 -1
BITMAP
3800
3800
3800
3800
ff00
ff00
3800
3800
3800
3800
3800
3800
3800
3800
3800
3800
3f00
1f00
ENDCHAR
STARTCHAR u
ENCODING -1 117
SWIDTH 0 0
DWIDTH 15 0
BBX 11 14 2 -1
BITMAP
e0e0
e0e0
e0e0
e0e0
e0e0
e0e0
e0e0
e0e0
e0e0
e0e0
e0e0
71e0
7fe0
3ee0
ENDCHAR
STARTCHAR v
ENCODING -1 118
SWIDTH 0 0
DWIDTH 14 0
BBX 12 14 1 -1
BITMAP
e070
e070
e070
70e0
70e0
70e0
39c0
39c0
39c0
1f80
1f80
0f00
0f00
0f00
ENDCHAR
STARTCHAR w
ENCODING -1 119
SWIDTH 0 0
DWIDTH 20 0
BBX 19 14 1 -1
BITMAP
e0e0e000
e0e0e000
60e0c000
71f1c000
71f1c000
31b18000
3bbb8000
3bbb8000
1b1b0000
1f1f0000
1f1f0000
0e0e0000
0e0e0000
0e0e0000
ENDCHAR
STARTCHAR x
ENCODING -1 120
SWIDTH 0 0
DWIDTH 13 0
BBX 11 14 1 -1
BITMAP
e0e0
f1e0
71c0
3b80
3b80
1f00
0e00
1f00
1f00
3b80
71c0
71c0
e0e0
e0e0
ENDCHAR
STARTCHAR y
ENCODING -1 121
SWIDTH 0 0
DWIDTH 15 0
BBX 13 19 1 -6
BITMAP
e038
f038
7078
7870
3870
3cf0
1ce0
1ce0
0fc0
0fc0
07c0
0780
0380
0380
0700
0700
3e00
3e00
3c00
ENDCHAR
STARTCHAR z
ENCODING -1 122
SWIDTH 0 0
DWIDTH 13 0
BBX 11 14 1 -1
BITMAP
ffe0
ffe0
01c0
0380
0780
0f00
0e00
1e00
3c00
3800
7000
f000
ffe0
ffe0
ENDCHAR
STARTCHAR {
ENCODING -1 123
SWIDTH 0 0
DWIDTH 10 0
BBX 7 24 1 -6
BITMAP
0e00
1c00
3800
3800
3800
3800
3800
3800
3800
3800
7000
e000
e000
7000
3800
3800
3800
3800
3800
3800
3800
3800
1c00
0e00
ENDCHAR
STARTCHAR |
ENCODING -1 124
SWIDTH 0 0
DWIDTH 7 0
BBX 3 24 2 -6
BITMAP
e000
e000
e000
e000
e000
e000
e000
e000
e000
e000
e000
e000
e000
e000
e000
e000
e000
e000
e000
e000
e000
e000
e000
e000
ENDCHAR
STARTCHAR }
ENCODING -1 125
SWIDTH 0 0
DWIDTH 10 0
BBX 7 24 2 -6
BITMAP
e000
7000
3800
3800
3800
3800
3800
3800
3800
3800
1c00
0e00
0e00
1c00
3800
3800
3800
3800
3800
3800
3800
3800
7000
e000
ENDCHAR
STARTCHAR ~
ENCODING -1 126
SWIDTH 0 0
DWIDTH 14 0
BBX 11 4 1 4
BITMAP
78e0
fee0
efe0
e3c0
ENDCHAR
ENDFONT
